HIERARCHY
ROOT Root
{
  OFFSET 0.0 0.0 0.0
  CHANNELS 6 Xposition Yposition Zposition Zrotation Yrotation Xrotation
  JOINT Hips
  {
    OFFSET 0.0 100.0 0.0
    CHANNELS 6 Xposition Yposition Zposition Zrotation Yrotation Xrotation
    JOINT Spine1
    {
      OFFSET 5.003913 -0.037094 -0.013727
      CHANNELS 3 Zrotation Yrotation Xrotation
      JOINT Spine2
      {
        OFFSET 7.125363 -1e-06 0.0
        CHANNELS 3 Zrotation Yrotation Xrotation
        JOINT Chest
        {
          OFFSET 7.594027 1e-06 0.0
          CHANNELS 3 Zrotation Yrotation Xrotation
          JOINT Neck1
          {
            OFFSET 26.313086 -0.460272 -0.181672
            CHANNELS 3 Zrotation Yrotation Xrotation
            JOINT Neck2
            {
              OFFSET 8.045911 0.0 0.0
              CHANNELS 3 Zrotation Yrotation Xrotation
              JOINT Head
              {
                OFFSET 6.432774 0.0 0.0
                CHANNELS 3 Zrotation Yrotation Xrotation
                JOINT HeadEnd
                {
                  OFFSET 16.169773 0.06451 0.00362
                  CHANNELS 3 Zrotation Yrotation Xrotation
                }
                JOINT Jaw
                {
                  OFFSET 0.108741 3.12938 0.002639
                  CHANNELS 3 Zrotation Yrotation Xrotation
                }
                JOINT LeftEye
                {
                  OFFSET 4.45173 8.166359 3.206392
                  CHANNELS 3 Zrotation Yrotation Xrotation
                }
                JOINT RightEye
                {
                  OFFSET 4.436895 8.135758 -3.222429
                  CHANNELS 3 Zrotation Yrotation Xrotation
                }
              }
            }
          }
          JOINT LeftShoulder
          {
            OFFSET 23.218927 5.195579 1.621656
            CHANNELS 3 Zrotation Yrotation Xrotation
            JOINT LeftArm
            {
              OFFSET 15.902118 2e-06 -2e-06
              CHANNELS 3 Zrotation Yrotation Xrotation
              JOINT LeftForeArm
              {
                OFFSET 28.739307 0.0 -1e-06
                CHANNELS 3 Zrotation Yrotation Xrotation
                JOINT LeftHand
                {
                  OFFSET 27.093981 -4e-06 0.0
                  CHANNELS 3 Zrotation Yrotation Xrotation
                  JOINT LeftHandThumb1
                  {
                    OFFSET 2.276781 3.380274 0.83384
                    CHANNELS 3 Zrotation Yrotation Xrotation
                    JOINT LeftHandThumb2
                    {
                      OFFSET 4.705309 -1e-06 -1e-06
                      CHANNELS 3 Zrotation Yrotation Xrotation
                      JOINT LeftHandThumb3
                      {
                        OFFSET 2.798515 0.0 3e-06
                        CHANNELS 3 Zrotation Yrotation Xrotation
                        JOINT LeftHandThumbEnd
                        {
                          OFFSET 3.180793 4e-06 -4e-06
                          CHANNELS 3 Zrotation Yrotation Xrotation
                        }
                      }
                    }
                  }
                  JOINT LeftHandIndex1
                  {
                    OFFSET 3.247786 2.352677 0.137192
                    CHANNELS 3 Zrotation Yrotation Xrotation
                    JOINT LeftHandIndex2
                    {
                      OFFSET 6.367095 1e-06 0.0
                      CHANNELS 3 Zrotation Yrotation Xrotation
                      JOINT LeftHandIndex3
                      {
                        OFFSET 3.662364 0.0 0.0
                        CHANNELS 3 Zrotation Yrotation Xrotation
                        JOINT LeftHandIndex4
                        {
                          OFFSET 2.329242 4e-06 -4e-06
                          CHANNELS 3 Zrotation Yrotation Xrotation
                          JOINT LeftHandIndexEnd
                          {
                            OFFSET 2.767823 1e-06 0.0
                            CHANNELS 3 Zrotation Yrotation Xrotation
                          }
                        }
                      }
                    }
                  }
                  JOINT LeftHandMiddle1
                  {
                    OFFSET 3.163612 0.945023 -0.406112
                    CHANNELS 3 Zrotation Yrotation Xrotation
                    JOINT LeftHandMiddle2
                    {
                      OFFSET 6.276789 3e-06 0.0
                      CHANNELS 3 Zrotation Yrotation Xrotation
                      JOINT LeftHandMiddle3
                      {
                        OFFSET 4.35652 -1e-06 4e-06
                        CHANNELS 3 Zrotation Yrotation Xrotation
                        JOINT LeftHandMiddle4
                        {
                          OFFSET 2.996877 0.0 8e-06
                          CHANNELS 3 Zrotation Yrotation Xrotation
                          JOINT LeftHandMiddleEnd
                          {
                            OFFSET 2.323256 3e-06 -4e-06
                            CHANNELS 3 Zrotation Yrotation Xrotation
                          }
                        }
                      }
                    }
                  }
                  JOINT LeftHandRing1
                  {
                    OFFSET 2.882606 -0.309162 0.107445
                    CHANNELS 3 Zrotation Yrotation Xrotation
                    JOINT LeftHandRing2
                    {
                      OFFSET 6.033198 0.0 4e-06
                      CHANNELS 3 Zrotation Yrotation Xrotation
                      JOINT LeftHandRing3
                      {
                        OFFSET 4.350578 3e-06 0.0
                        CHANNELS 3 Zrotation Yrotation Xrotation
                        JOINT LeftHandRing4
                        {
                          OFFSET 2.651321 2e-06 -7e-06
                          CHANNELS 3 Zrotation Yrotation Xrotation
                          JOINT LeftHandRingEnd
                          {
                            OFFSET 1.937663 1e-06 -4e-06
                            CHANNELS 3 Zrotation Yrotation Xrotation
                          }
                        }
                      }
                    }
                  }
                  JOINT LeftHandPinky1
                  {
                    OFFSET 2.865315 -1.525436 0.575687
                    CHANNELS 3 Zrotation Yrotation Xrotation
                    JOINT LeftHandPinky2
                    {
                      OFFSET 5.54936 1e-06 -8e-06
                      CHANNELS 3 Zrotation Yrotation Xrotation
                      JOINT LeftHandPinky3
                      {
                        OFFSET 3.070974 0.0 -4e-06
                        CHANNELS 3 Zrotation Yrotation Xrotation
                        JOINT LeftHandPinky4
                        {
                          OFFSET 1.549672 1e-06 0.0
                          CHANNELS 3 Zrotation Yrotation Xrotation
                          JOINT LeftHandPinkyEnd
                          {
                            OFFSET 1.952123 0.0 0.0
                            CHANNELS 3 Zrotation Yrotation Xrotation
                          }
                        }
                      }
                    }
                  }
                }
              }
            }
          }
          JOINT RightShoulder
          {
            OFFSET 23.161716 5.296122 -1.380114
            CHANNELS 3 Zrotation Yrotation Xrotation
            JOINT RightArm
            {
              OFFSET -16.027195 -2e-06 1.1e-05
              CHANNELS 3 Zrotation Yrotation Xrotation
              JOINT RightForeArm
              {
                OFFSET -28.736639 4e-06 2e-06
                CHANNELS 3 Zrotation Yrotation Xrotation
                JOINT RightHand
                {
                  OFFSET -27.133619 6e-06 0.0
                  CHANNELS 3 Zrotation Yrotation Xrotation
                  JOINT RightHandThumb1
                  {
                    OFFSET -2.274328 -3.351035 -0.83067
                    CHANNELS 3 Zrotation Yrotation Xrotation
                    JOINT RightHandThumb2
                    {
                      OFFSET -4.703594 -3e-06 2e-06
                      CHANNELS 3 Zrotation Yrotation Xrotation
                      JOINT RightHandThumb3
                      {
                        OFFSET -2.794935 -4e-06 -3e-06
                        CHANNELS 3 Zrotation Yrotation Xrotation
                        JOINT RightHandThumbEnd
                        {
                          OFFSET -3.183852 4e-06 1e-06
                          CHANNELS 3 Zrotation Yrotation Xrotation
                        }
                      }
                    }
                  }
                  JOINT RightHandIndex1
                  {
                    OFFSET -3.253496 -2.33755 -0.127667
                    CHANNELS 3 Zrotation Yrotation Xrotation
                    JOINT RightHandIndex2
                    {
                      OFFSET -6.344434 0.0 0.0
                      CHANNELS 3 Zrotation Yrotation Xrotation
                      JOINT RightHandIndex3
                      {
                        OFFSET -3.654871 0.0 -8e-06
                        CHANNELS 3 Zrotation Yrotation Xrotation
                        JOINT RightHandIndex4
                        {
                          OFFSET -2.327586 -1e-06 0.0
                          CHANNELS 3 Zrotation Yrotation Xrotation
                          JOINT RightHandIndexEnd
                          {
                            OFFSET -2.770001 3e-06 8e-06
                            CHANNELS 3 Zrotation Yrotation Xrotation
                          }
                        }
                      }
                    }
                  }
                  JOINT RightHandMiddle1
                  {
                    OFFSET -3.168223 -0.944764 0.411762
                    CHANNELS 3 Zrotation Yrotation Xrotation
                    JOINT RightHandMiddle2
                    {
                      OFFSET -6.266691 -1e-06 -4e-06
                      CHANNELS 3 Zrotation Yrotation Xrotation
                      JOINT RightHandMiddle3
                      {
                        OFFSET -4.348901 0.0 0.0
                        CHANNELS 3 Zrotation Yrotation Xrotation
                        JOINT RightHandMiddle4
                        {
                          OFFSET -3.00024 2e-06 -4e-06
                          CHANNELS 3 Zrotation Yrotation Xrotation
                          JOINT RightHandMiddleEnd
                          {
                            OFFSET -2.321477 -4e-06 -4e-06
                            CHANNELS 3 Zrotation Yrotation Xrotation
                          }
                        }
                      }
                    }
                  }
                  JOINT RightHandRing1
                  {
                    OFFSET -2.885654 0.293261 -0.119232
                    CHANNELS 3 Zrotation Yrotation Xrotation
                    JOINT RightHandRing2
                    {
                      OFFSET -6.032835 -1e-06 -4e-06
                      CHANNELS 3 Zrotation Yrotation Xrotation
                      JOINT RightHandRing3
                      {
                        OFFSET -4.33881 0.0 -4e-06
                        CHANNELS 3 Zrotation Yrotation Xrotation
                        JOINT RightHandRing4
                        {
                          OFFSET -2.654903 -4e-06 -4e-06
                          CHANNELS 3 Zrotation Yrotation Xrotation
                          JOINT RightHandRingEnd
                          {
                            OFFSET -1.935122 0.0 4e-06
                            CHANNELS 3 Zrotation Yrotation Xrotation
                          }
                        }
                      }
                    }
                  }
                  JOINT RightHandPinky1
                  {
                    OFFSET -2.866241 1.503904 -0.60527
                    CHANNELS 3 Zrotation Yrotation Xrotation
                    JOINT RightHandPinky2
                    {
                      OFFSET -5.553177 -2e-06 0.0
                      CHANNELS 3 Zrotation Yrotation Xrotation
                      JOINT RightHandPinky3
                      {
                        OFFSET -3.062664 -1e-06 -4e-06
                        CHANNELS 3 Zrotation Yrotation Xrotation
                        JOINT RightHandPinky4
                        {
                          OFFSET -1.546529 2e-06 4e-06
                          CHANNELS 3 Zrotation Yrotation Xrotation
                          JOINT RightHandPinkyEnd
                          {
                            OFFSET -1.952341 0.0 -4e-06
                            CHANNELS 3 Zrotation Yrotation Xrotation
                          }
                        }
                      }
                    }
                  }
                }
              }
            }
          }
        }
      }
    }
    JOINT LeftLeg
    {
      OFFSET -8.443107 2.567604 10.043214
      CHANNELS 3 Zrotation Yrotation Xrotation
      JOINT LeftShin
      {
        OFFSET 43.229198 1e-06 -1e-06
        CHANNELS 3 Zrotation Yrotation Xrotation
        JOINT LeftFoot
        {
          OFFSET 42.298611 1e-06 1e-06
          CHANNELS 3 Zrotation Yrotation Xrotation
          JOINT LeftToeBase
          {
            OFFSET 14.165858 1e-06 0.0
            CHANNELS 3 Zrotation Yrotation Xrotation
            JOINT LeftToeEnd
            {
              OFFSET 6.7141 -0.234461 0.0
              CHANNELS 3 Zrotation Yrotation Xrotation
            }
          }
        }
      }
    }
    JOINT RightLeg
    {
      OFFSET -8.303923 2.592729 -10.047278
      CHANNELS 3 Zrotation Yrotation Xrotation
      JOINT RightShin
      {
        OFFSET -43.369682 0.0 1e-06
        CHANNELS 3 Zrotation Yrotation Xrotation
        JOINT RightFoot
        {
          OFFSET -42.260784 4e-06 2e-06
          CHANNELS 3 Zrotation Yrotation Xrotation
          JOINT RightToeBase
          {
            OFFSET -14.222245 -2e-06 -1e-06
            CHANNELS 3 Zrotation Yrotation Xrotation
            JOINT RightToeEnd
            {
              OFFSET -6.660062 0.232574 -2e-06
              CHANNELS 3 Zrotation Yrotation Xrotation
            }
          }
        }
      }
    }
  }
}
MOTION
Frames: 4
Frame Time: 0.03333333333333333
0.0 0.0 0.0 0.0 -0.0 0.0 0.52763 80.790634 -2.558931 92.306862 -2.082184 91.381157 12.94118 -0.345036 -0.543159 -6.301669 -0.674029 -0.129962 19.103617 0.324156 -2.593008 11.762539 1.450693 2.760996 -2.457582 -0.832687 2.996663 -36.311958 -0.7489 3.653697 6e-06 0.0 0.0 -0.017373 -0.016072 -0.001604 -0.012377 0.071255 0.004774 -0.034635 -0.11222 0.008009 2.76205 -68.732086 4.369493 17.878328 -23.185614 -54.388939 54.455002 -0.899401 -1.629527 2.289479 23.055916 -92.157845 17.636627 -26.322733 52.411194 -19.46666 -14.395598 29.410389 -0.0 -8.774822 -2e-06 14.844267 -17.53072 6.724857 -0.609775 -1.795652 -3.889328 -4.807089 -11.04681 -2.93785 5e-06 -20.976015 0.0 -5.019969 -25.033552 -4.03188 6e-06 -2e-06 -0.0 -10.634533 -5.686969 -3.565588 10.573276 -17.922947 -3.113899 3e-06 -13.821208 2e-06 -0.501779 -31.181501 -4.027012 -11.977646 -59.856922 7.117355 -13.982714 -7.150196 -2.875041 13.772734 -8.401493 -3.218242 0.347735 -34.211544 0.771659 -0.963031 -17.733366 2.621025 -2e-06 -0.0 -2e-06 -17.346415 -20.095213 -4.201782 21.757557 -1.638375 3.866427 4e-06 -6.338824 2e-06 -1.697589 -22.59174 -6.194004 -3e-06 -4e-06 -3e-06 -166.76767 -73.177307 -6.444354 15.010756 -23.926456 -72.203308 68.051193 -3.179995 0.489096 -7.681228 28.888855 -79.644424 22.182121 -20.375904 49.933323 -16.701817 -16.74353 28.476532 -2e-06 -12.690601 -2e-06 17.74659 -17.113518 2.104464 -0.105919 -1.513859 -4.275881 -5.039041 -5.612872 -2.953557 3e-06 -11.020526 0.0 -6.111295 -15.895336 -3.840469 -1e-06 0.0 -0.0 -10.283367 -5.680289 -4.341839 11.028294 -11.302407 -2.372632 -1.384268 -14.238585 -6.320121 -0.625438 -26.924196 -3.827602 -4.795702 -50.201511 -3.09744 -13.708527 -7.363479 -3.720938 18.141151 -14.052741 -3.242675 7e-06 -18.787273 -2e-06 -0.429714 -8.456046 2.555504 0.0 0.0 -0.0 -15.923534 -20.09449 -5.473583 30.419218 -7.190827 1.735926 2e-06 -8.162929 -0.0 -1.861902 -22.861479 -6.16794 2e-06 -2e-06 -1e-06 134.395294 -5.959047 -4.77783 79.496849 0.13596 -0.040936 -103.452461 -0.171508 -3.875931 -4.474116 1.399526 2.143898 -1.0 0.0 0.0 -46.135994 -16.047182 -8.029351 80.514465 -0.090642 0.168493 -103.897949 -2.895813 -6.216069 -4.332294 0.573328 1.652267 -1.000001 -0.0 -0.0 
0.0 0.0 0.0 0.0 -0.0 0.0 0.623308 80.905273 -2.63018 92.292419 -2.354487 91.391479 12.963169 -0.321444 -0.583607 -6.296002 -0.682044 -0.094957 19.004215 0.343174 -2.585522 11.658346 1.535996 2.72948 -2.4532 -0.851287 3.07119 -36.459282 -0.708666 3.688864 6e-06 0.0 0.0 -0.01487 -0.012645 0.013236 -0.017266 0.067808 0.016705 -0.038018 -0.101912 0.025523 2.549508 -68.762886 4.556849 17.668535 -23.159847 -54.260811 54.712242 -0.943886 -1.605618 2.549504 23.091698 -91.406517 17.636629 -26.322737 52.411194 -19.466656 -14.395602 29.410393 -0.0 -8.77482 -2e-06 14.815671 -17.494328 6.68105 -0.609773 -1.795651 -3.889328 -4.80709 -11.046811 -2.937849 5e-06 -20.976015 2e-06 -5.019969 -25.033556 -4.031881 5e-06 -2e-06 -0.0 -10.634533 -5.686967 -3.565588 10.573275 -17.922947 -3.1139 3e-06 -13.821206 1e-06 -0.501781 -31.181501 -4.02701 -11.946302 -59.698578 7.081175 -13.982712 -7.150194 -2.875042 13.77273 -8.40149 -3.218241 0.34773 -34.211544 0.771661 -0.963031 -17.733366 2.621024 -1e-06 -0.0 0.0 -17.346415 -20.095213 -4.201781 21.757557 -1.638376 3.866427 1e-06 -6.338823 2e-06 -1.697589 -22.591742 -6.194004 -2e-06 -4e-06 -3e-06 -167.287903 -73.43988 -5.82252 14.483749 -24.199442 -71.988083 69.913429 -3.14877 0.413651 -8.066593 28.971546 -78.951561 22.182119 -20.375895 49.933319 -16.701813 -16.74353 28.47653 -2e-06 -12.690602 -0.0 17.624226 -17.14847 2.148672 -0.10592 -1.513853 -4.27588 -5.039038 -5.612873 -2.953556 1e-06 -11.020523 -0.0 -6.111298 -15.895334 -3.840469 -0.0 0.0 -0.0 -10.283373 -5.680287 -4.341837 11.028296 -11.302406 -2.372633 -1.384267 -14.238584 -6.320121 -0.625442 -26.924192 -3.827599 -4.774282 -50.265274 -3.162874 -13.708527 -7.363474 -3.720937 18.141153 -14.052739 -3.242675 8e-06 -18.78727 -1e-06 -0.429711 -8.456045 2.555504 1e-06 1e-06 -1e-06 -15.923538 -20.094482 -5.473581 30.419214 -7.190827 1.735925 2e-06 -8.162927 -0.0 -1.861902 -22.861471 -6.16794 2e-06 -3e-06 -1e-06 134.138153 -5.850973 -4.82495 79.248512 0.147497 -0.054651 -103.293854 -0.144115 -3.858625 -4.485633 1.382614 2.137114 -0.999999 0.0 0.0 -46.399677 -16.060827 -7.944107 80.262657 -0.08563 0.155986 -103.676903 -2.817547 -6.288134 -4.351642 0.583578 1.66084 -1.000001 0.0 0.0 
0.0 0.0 0.0 0.0 -0.0 0.0 0.723895 80.987297 -2.692205 92.256882 -2.622212 91.416878 12.986424 -0.306064 -0.622389 -6.309896 -0.703136 -0.0718 18.951679 0.370158 -2.574594 11.621729 1.650669 2.723205 -2.455325 -0.873615 3.141284 -36.645741 -0.724258 3.754833 6e-06 0.0 0.0 -0.009909 -0.010113 0.026077 -0.028006 0.064491 0.025359 -0.051903 -0.093262 0.042514 2.224395 -68.875702 4.878193 17.388859 -23.111364 -54.229198 55.221848 -1.088961 -1.615555 2.807375 23.175051 -90.508141 17.636623 -26.322737 52.411198 -19.466658 -14.395598 29.410389 -0.0 -8.774822 -2e-06 14.793683 -17.492764 6.66706 -0.609778 -1.795654 -3.889327 -4.807086 -11.046813 -2.93785 5e-06 -20.976015 0.0 -5.019972 -25.03356 -4.031881 5e-06 0.0 -0.0 -10.634535 -5.686969 -3.565587 10.573275 -17.922951 -3.113901 3e-06 -13.82121 1e-06 -0.501774 -31.181505 -4.027015 -11.922744 -59.572124 7.074995 -13.982714 -7.150197 -2.875042 13.772733 -8.40149 -3.218243 0.347732 -34.211544 0.771657 -0.963027 -17.733368 2.62102 -3e-06 -0.0 0.0 -17.346416 -20.095215 -4.20178 21.757555 -1.638375 3.866427 2e-06 -6.338824 1e-06 -1.697589 -22.591745 -6.194005 -3e-06 -4e-06 -2e-06 -167.986954 -73.910759 -4.958507 13.912966 -24.578152 -71.730133 71.811234 -3.143907 0.22599 -8.391678 29.004723 -78.076538 22.182117 -20.375898 49.933327 -16.701811 -16.743525 28.476524 -1e-06 -12.690597 -2e-06 17.529285 -17.194838 2.171292 -0.105917 -1.513854 -4.27588 -5.039041 -5.612874 -2.953556 3e-06 -11.020525 -1e-06 -6.111296 -15.895334 -3.840469 -0.0 0.0 -0.0 -10.283365 -5.680289 -4.341839 11.028287 -11.302405 -2.372631 -1.384268 -14.238583 -6.320121 -0.625439 -26.924191 -3.827601 -4.765845 -50.224155 -3.204234 -13.708524 -7.363478 -3.720939 18.141148 -14.052742 -3.242673 7e-06 -18.78727 -2e-06 -0.429712 -8.456044 2.555503 0.0 -0.0 -0.0 -15.92353 -20.094484 -5.473588 30.419205 -7.190827 1.735927 3e-06 -8.162927 -1e-06 -1.861902 -22.861473 -6.167941 1e-06 -3e-06 -1e-06 133.827057 -5.786052 -4.852725 79.102081 0.16324 -0.075734 -103.112228 -0.100621 -3.814327 -4.44973 1.366074 2.12897 -0.999998 0.0 0.0 -46.661068 -16.122511 -7.946095 80.07077 -0.079275 0.138277 -103.492027 -2.632627 -6.32781 -4.35052 0.591172 1.670264 -1.000002 1e-06 -0.0 
0.0 0.0 0.0 0.0 -0.0 0.0 0.829506 81.016701 -2.756344 92.207062 -2.855917 91.439316 12.999093 -0.304384 -0.6509 -6.322861 -0.733551 -0.064423 18.940992 0.40145 -2.56112 11.636245 1.746753 2.750758 -2.46882 -0.878415 3.182729 -36.799152 -0.782789 3.860472 6e-06 0.0 0.0 -0.006512 -0.007744 0.030173 -0.04524 0.061833 0.025893 -0.074249 -0.08553 0.050249 1.832011 -69.073608 5.309224 17.139606 -23.071352 -54.309772 55.882988 -1.25265 -1.618862 3.030323 23.295582 -89.592651 17.636629 -26.322721 52.411179 -19.46666 -14.395594 29.410385 -1e-06 -8.774821 -2e-06 14.7896 -17.522896 6.661485 -0.609776 -1.795653 -3.889325 -4.807088 -11.046809 -2.93785 7e-06 -20.976011 -2e-06 -5.019969 -25.033556 -4.031883 7e-06 -1e-06 1e-06 -10.634533 -5.686972 -3.565585 10.573277 -17.922947 -3.113901 4e-06 -13.821206 -0.0 -0.501776 -31.181498 -4.027013 -11.931437 -59.503201 7.094039 -13.982712 -7.150196 -2.875042 13.77273 -8.401491 -3.21824 0.347734 -34.211544 0.771654 -0.963027 -17.733364 2.62102 -2e-06 -0.0 0.0 -17.346413 -20.095213 -4.201781 21.757557 -1.638376 3.866428 2e-06 -6.338822 1e-06 -1.697584 -22.59174 -6.194007 -3e-06 -2e-06 -2e-06 -168.737686 -74.522247 -4.018668 13.361486 -25.061558 -71.463921 73.507607 -3.167673 -0.017538 -8.652991 29.019398 -77.149567 22.182119 -20.3759 49.933334 -16.701815 -16.74353 28.476536 -0.0 -12.690603 -1e-06 17.468693 -17.233963 2.179068 -0.10592 -1.513858 -4.275882 -5.039041 -5.61287 -2.953557 3e-06 -11.020523 -1e-06 -6.111303 -15.895334 -3.84047 -0.0 -0.0 -0.0 -10.283368 -5.68029 -4.341838 11.028296 -11.302402 -2.372634 -1.384271 -14.238581 -6.320122 -0.625439 -26.924187 -3.827604 -4.763847 -50.140324 -3.228382 -13.708522 -7.363477 -3.720942 18.141151 -14.052739 -3.242674 4e-06 -18.787271 -1e-06 -0.429713 -8.456043 2.555504 1e-06 0.0 0.0 -15.923536 -20.094484 -5.473585 30.419218 -7.190823 1.735925 2e-06 -8.162926 -1e-06 -1.861902 -22.861469 -6.167942 -1e-06 -2e-06 -0.0 133.56366 -5.781564 -4.873986 79.099144 0.174465 -0.089235 -103.046867 -0.045289 -3.781415 -4.427681 1.349106 2.120752 -0.999996 0.0 0.0 -46.91674 -16.216448 -8.000015 79.978508 -0.070852 0.12108 -103.385498 -2.408339 -6.361499 -4.35006 0.59664 1.679001 -1.000002 1e-06 -0.0 
